<svg width="1606" height="223" viewBox="0 0 1606 223" fill="none" xmlns="http://www.w3.org/2000/svg">
<line y1="168.5" x2="1600" y2="168.5" stroke="#2F3342"/>
<g filter="url(#filter0_d_3_28)">
<line y1="-2.5" x2="8" y2="-2.5" transform="matrix(-1 0 0 1 909.334 153)" stroke="#FFF739" stroke-width="5"/>
</g>
<g filter="url(#filter1_d_3_28)">
<line x1="168" y1="150.5" x2="205.336" y2="150.5" stroke="#FFF739" stroke-width="5"/>
</g>
<g filter="url(#filter2_d_3_28)">
<line x1="1259.34" y1="150.5" x2="1489.34" y2="150.5" stroke="#FFF739" stroke-width="5"/>
</g>
<g filter="url(#filter3_d_3_28)">
<line x1="1495.34" y1="150.5" x2="1600.34" y2="150.5" stroke="#FFF739" stroke-width="5"/>
</g>
<g filter="url(#filter4_d_3_28)">
<line x1="740.335" y1="150.5" x2="756.337" y2="150.5" stroke="#FFF739" stroke-width="5"/>
</g>
<g filter="url(#filter5_d_3_28)">
<line x1="1089" y1="150.5" x2="1110.34" y2="150.5" stroke="#FFF739" stroke-width="5"/>
</g>
<g filter="url(#filter6_d_3_28)">
<line x1="854.003" y1="150.5" x2="862.003" y2="150.5" stroke="#FFF739" stroke-width="5"/>
</g>
<line x1="533.5" y1="168" x2="533.5" y2="187" stroke="#2F3342"/>
<line x1="1062.5" y1="168" x2="1062.5" y2="187" stroke="#2F3342"/>
<path d="M467.268 211H465.828V199.576H467.428L473.908 208.584H474.068V199.576H475.508V211H473.908L467.428 201.992H467.268V211ZM481.75 211.224C479.254 211.224 477.43 209.816 477.43 206.872C477.43 203.928 479.254 202.52 481.75 202.52C484.278 202.52 486.07 203.928 486.07 206.872C486.07 209.816 484.278 211.224 481.75 211.224ZM481.75 210.056C483.462 210.056 484.646 209.016 484.646 206.872C484.646 204.712 483.446 203.688 481.75 203.688C480.054 203.688 478.854 204.712 478.854 206.872C478.854 209.016 480.054 210.056 481.75 210.056ZM489.391 211H487.983V202.744H489.231L489.391 204.056H489.551C490.159 203.16 491.135 202.744 492.783 202.744V204.056C492.575 204.04 492.351 204.024 492.159 204.024C490.223 204.024 489.391 205.096 489.391 207.032V211ZM497.395 211.224C495.171 211.224 493.475 209.704 493.475 206.872C493.475 204.056 495.171 202.52 497.395 202.52C498.579 202.52 499.651 202.904 500.403 203.96H500.563V199.576H501.955V211H500.723L500.563 209.736H500.403C499.667 210.808 498.611 211.224 497.395 211.224ZM497.731 210.04C499.379 210.04 500.579 208.968 500.579 206.872C500.579 204.776 499.379 203.704 497.731 203.704C496.083 203.704 494.899 204.856 494.899 206.872C494.899 208.888 496.083 210.04 497.731 210.04ZM507.001 207.464H503.881V206.264H507.001V207.464ZM514.167 211.224C510.695 211.224 508.599 209.096 508.599 205.288C508.599 201.48 510.695 199.352 514.167 199.352C517.623 199.352 519.719 201.48 519.719 205.288C519.719 209.096 517.623 211.224 514.167 211.224ZM514.167 209.944C516.727 209.944 518.247 208.28 518.247 205.288C518.247 202.296 516.727 200.632 514.167 200.632C511.591 200.632 510.087 202.296 510.087 205.288C510.087 208.28 511.591 209.944 514.167 209.944ZM524.965 211.224C522.437 211.224 521.333 210.104 521.333 208.696V208.552H522.725V208.616C522.725 209.432 523.397 210.104 524.965 210.104C526.469 210.104 527.205 209.576 527.205 208.664C527.205 206.728 521.493 208.424 521.493 205.064C521.493 203.624 522.645 202.52 524.965 202.52C527.381 202.52 528.437 203.672 528.437 205.08V205.192H527.045V205.096C527.045 204.296 526.373 203.64 524.965 203.64C523.605 203.64 522.885 204.152 522.885 205.064C522.885 207.096 528.597 205.272 528.597 208.664C528.597 210.104 527.461 211.224 524.965 211.224ZM533.315 211H531.907V203.944H529.875V202.744H531.907V200.536H533.315V202.744H535.555V203.944H533.315V211ZM540.198 211.224C537.67 211.224 536.566 210.104 536.566 208.696V208.552H537.958V208.616C537.958 209.432 538.63 210.104 540.198 210.104C541.702 210.104 542.438 209.576 542.438 208.664C542.438 206.728 536.726 208.424 536.726 205.064C536.726 203.624 537.878 202.52 540.198 202.52C542.614 202.52 543.67 203.672 543.67 205.08V205.192H542.278V205.096C542.278 204.296 541.606 203.64 540.198 203.64C538.838 203.64 538.118 204.152 538.118 205.064C538.118 207.096 543.83 205.272 543.83 208.664C543.83 210.104 542.694 211.224 540.198 211.224ZM549.554 211.224C546.946 211.224 545.378 209.48 545.378 206.872C545.378 204.008 547.202 202.52 549.554 202.52C551.922 202.52 553.554 204.12 553.554 206.76C553.554 206.888 553.538 207.144 553.522 207.256H546.77C546.898 209.08 548.05 210.104 549.554 210.104C550.466 210.104 551.346 209.656 551.762 208.84H553.154C552.674 210.392 551.218 211.224 549.554 211.224ZM546.818 206.184H552.082C551.938 204.6 550.914 203.64 549.522 203.64C548.178 203.64 546.994 204.536 546.818 206.184ZM559.334 211.224C556.726 211.224 555.158 209.48 555.158 206.872C555.158 204.008 556.982 202.52 559.334 202.52C561.702 202.52 563.334 204.12 563.334 206.76C563.334 206.888 563.318 207.144 563.302 207.256H556.55C556.678 209.08 557.83 210.104 559.334 210.104C560.246 210.104 561.126 209.656 561.542 208.84H562.934C562.454 210.392 560.998 211.224 559.334 211.224ZM556.598 206.184H561.862C561.718 204.6 560.694 203.64 559.302 203.64C557.958 203.64 556.774 204.536 556.598 206.184ZM568.059 207.464H564.939V206.264H568.059V207.464ZM571.417 211H569.977V199.576H571.417V204.744H571.577L577.065 199.576H578.953L573.049 205.144L579.273 211H577.193L571.577 205.736H571.417V211ZM583.311 211.224C581.087 211.224 579.391 209.704 579.391 206.872C579.391 204.056 581.087 202.52 583.311 202.52C584.495 202.52 585.567 202.904 586.319 203.96H586.479L586.639 202.744H587.871V211H586.639L586.479 209.736H586.319C585.583 210.824 584.527 211.224 583.311 211.224ZM583.647 210.04C585.295 210.04 586.495 208.968 586.495 206.872C586.495 204.776 585.295 203.704 583.647 203.704C581.999 203.704 580.815 204.856 580.815 206.872C580.815 208.888 581.999 210.04 583.647 210.04ZM591.525 211H590.117V206.488C590.117 203.768 591.637 202.52 594.117 202.52C596.613 202.52 598.117 203.656 598.117 206.376V211H596.725V206.376C596.725 204.488 595.701 203.72 594.117 203.72C592.533 203.72 591.525 204.568 591.525 206.488V211ZM603.95 211.224C601.726 211.224 600.03 209.704 600.03 206.872C600.03 204.056 601.726 202.52 603.95 202.52C605.134 202.52 606.206 202.904 606.958 203.96H607.118L607.278 202.744H608.51V211H607.278L607.118 209.736H606.958C606.222 210.824 605.166 211.224 603.95 211.224ZM604.286 210.04C605.934 210.04 607.134 208.968 607.134 206.872C607.134 204.776 605.934 203.704 604.286 203.704C602.638 203.704 601.454 204.856 601.454 206.872C601.454 208.888 602.638 210.04 604.286 210.04ZM612.164 211H610.756V199.576H612.164V211Z" fill="#2F3342"/>
<path d="M1511.22 131.177C1511.22 134.985 1509.37 136.025 1507.69 136.025H1507.37V133.689H1507.58C1508.65 133.689 1509.22 132.809 1509.22 131.289C1509.22 129.721 1508.74 128.985 1507.86 128.985C1505.59 128.985 1507.24 135.961 1502.84 135.961C1500.7 135.961 1499.35 134.153 1499.35 131.401C1499.35 128.153 1500.78 126.713 1502.89 126.713C1503 126.713 1503.11 126.713 1503.21 126.729L1503.21 129.065C1503.13 129.049 1503.06 129.049 1502.98 129.049C1502.04 129.049 1501.35 129.657 1501.35 131.305C1501.35 132.729 1501.8 133.497 1502.68 133.497C1505 133.497 1503.38 126.521 1507.74 126.521C1509.78 126.521 1511.22 128.265 1511.22 131.177ZM1511.22 120.645C1511.22 123.205 1509.82 125.077 1506.87 125.077C1503.93 125.077 1502.52 123.205 1502.52 120.645C1502.52 118.693 1503.58 116.853 1505.78 116.661V118.789C1504.7 119.013 1504.28 119.845 1504.28 120.661C1504.28 121.925 1505.14 122.805 1506.87 122.805C1508.6 122.805 1509.46 121.925 1509.46 120.661C1509.46 119.845 1509.03 119.013 1507.96 118.789V116.661C1510.15 116.853 1511.22 118.693 1511.22 120.645ZM1511 112.71V114.934H1499.58V112.71H1503.85V112.55C1502.9 111.894 1502.52 111.014 1502.52 109.814C1502.52 108.246 1503.43 106.55 1506.02 106.55H1511V108.758H1506.38C1505.06 108.758 1504.41 109.35 1504.41 110.566C1504.41 111.814 1505.21 112.71 1506.63 112.71H1511ZM1501.75 103.365C1501.75 104.117 1501.21 104.661 1500.46 104.661C1499.7 104.661 1499.16 104.117 1499.16 103.365C1499.16 102.613 1499.7 102.069 1500.46 102.069C1501.21 102.069 1501.75 102.613 1501.75 103.365ZM1511 102.245V104.469H1502.74V102.245H1511ZM1511 97.9372V100.161H1499.58V97.9372H1511ZM1511 93.6291V95.8531H1499.58V93.6291H1505.98V93.4691L1502.74 90.5571V87.9011L1506.47 91.4051L1511 87.8531V90.6051L1507.29 93.4691V93.6291H1511ZM1511.22 83.5097C1511.22 86.4217 1509.99 87.3337 1508.81 87.3337C1508.71 87.3337 1508.6 87.3177 1508.52 87.3017V85.1097H1508.6C1509.16 85.1097 1509.58 84.4697 1509.58 83.5097C1509.58 82.6137 1509.3 81.9097 1508.65 81.9097C1507.13 81.9097 1508.6 87.2697 1505.18 87.2697C1503.56 87.2697 1502.52 85.7977 1502.52 83.6057C1502.52 81.0297 1503.56 79.8617 1505 79.8617C1505.08 79.8617 1505.14 79.8617 1505.22 79.8777V82.0697C1505.21 82.0697 1505.18 82.0537 1505.11 82.0537C1504.63 82.0537 1504.17 82.4857 1504.17 83.6057C1504.17 84.5177 1504.42 85.0777 1505.08 85.0777C1506.63 85.0777 1505.11 79.7177 1508.54 79.7177C1510.15 79.7177 1511.22 81.1097 1511.22 83.5097ZM1511.22 73.9686C1511.22 76.6886 1509.67 78.4006 1506.87 78.4006C1503.96 78.4006 1502.52 76.5606 1502.52 73.9686C1502.52 71.4726 1504.07 69.8566 1506.65 69.8566C1506.9 69.8566 1507.19 69.8726 1507.46 69.9046V76.1926C1508.84 76.0486 1509.58 75.1686 1509.58 73.9846C1509.58 73.2646 1509.27 72.6246 1508.73 72.2886V70.1286C1510.23 70.6086 1511.22 72.0006 1511.22 73.9686ZM1505.98 76.1446V72.0646C1504.76 72.2406 1504.17 73.1046 1504.17 74.0806C1504.17 75.0566 1504.81 75.9366 1505.98 76.1446ZM1511.22 63.973C1511.22 66.693 1509.67 68.405 1506.87 68.405C1503.96 68.405 1502.52 66.565 1502.52 63.973C1502.52 61.477 1504.07 59.861 1506.65 59.861C1506.9 59.861 1507.19 59.877 1507.46 59.909V66.197C1508.84 66.053 1509.58 65.173 1509.58 63.989C1509.58 63.269 1509.27 62.629 1508.73 62.293V60.133C1510.23 60.613 1511.22 62.005 1511.22 63.973ZM1505.98 66.149V62.069C1504.76 62.245 1504.17 63.109 1504.17 64.085C1504.17 65.061 1504.81 65.941 1505.98 66.149ZM1530 131.801V133.209H1520.13V133.369L1521.47 135.689L1520.35 136.313L1518.58 133.209V131.801H1530ZM1530.11 128.83C1530.11 129.438 1529.66 129.886 1529.06 129.886C1528.48 129.886 1528.03 129.438 1528.03 128.83C1528.03 128.254 1528.48 127.806 1529.06 127.806C1529.66 127.806 1530.11 128.254 1530.11 128.83ZM1530.22 121.975C1530.22 125.447 1527.52 126.311 1524.5 126.311C1520.54 126.311 1518.35 124.775 1518.35 122.055C1518.35 119.559 1519.79 118.455 1521.6 118.343V119.783C1520.35 119.927 1519.52 120.663 1519.52 122.023C1519.52 123.927 1521.18 124.871 1524.51 124.871V124.711C1523.52 124.023 1523.02 123.047 1523.02 121.671C1523.02 119.559 1524.21 117.991 1526.56 117.991C1528.62 117.991 1530.22 119.623 1530.22 121.975ZM1529.06 121.975C1529.06 120.279 1527.86 119.431 1526.56 119.431C1525.25 119.431 1524.16 120.167 1524.16 121.975C1524.16 123.639 1525.31 124.599 1526.61 124.599C1527.92 124.599 1529.06 123.799 1529.06 121.975ZM1530.22 112.528C1530.22 114.672 1528.8 116.624 1524.29 116.624C1519.78 116.624 1518.35 114.672 1518.35 112.528C1518.35 110.4 1519.78 108.432 1524.29 108.432C1528.8 108.432 1530.22 110.4 1530.22 112.528ZM1528.99 112.528C1528.99 111.152 1527.89 109.888 1524.29 109.888C1520.69 109.888 1519.57 111.152 1519.57 112.528C1519.57 113.904 1520.69 115.184 1524.29 115.184C1527.89 115.184 1528.99 113.904 1528.99 112.528ZM1530.22 102.967C1530.22 105.111 1528.8 107.063 1524.29 107.063C1519.78 107.063 1518.35 105.111 1518.35 102.967C1518.35 100.839 1519.78 98.8706 1524.29 98.8706C1528.8 98.8706 1530.22 100.839 1530.22 102.967ZM1528.99 102.967C1528.99 101.591 1527.89 100.327 1524.29 100.327C1520.69 100.327 1519.57 101.591 1519.57 102.967C1519.57 104.343 1520.69 105.623 1524.29 105.623C1527.89 105.623 1528.99 104.343 1528.99 102.967ZM1530 95.6607V97.0687H1525.49C1522.77 97.0687 1521.52 95.7567 1521.52 93.6447C1521.52 92.2687 1522 91.3087 1523.1 90.7807V90.6207C1522.03 90.1087 1521.52 89.1487 1521.52 87.8047C1521.52 85.6767 1522.66 84.3807 1525.38 84.3807H1530V85.7887H1525.38C1523.49 85.7887 1522.72 86.6047 1522.72 87.9007C1522.72 89.2127 1523.57 90.0287 1525.49 90.0287H1530V91.4207H1525.38C1523.49 91.4207 1522.72 92.2367 1522.72 93.5487C1522.72 94.8447 1523.57 95.6607 1525.49 95.6607H1530Z" fill="#2F3342"/>
<path d="M1275 133.864V136.2H1263.58V128.072H1265.69V133.864H1268.71V128.792H1270.82V133.864H1275ZM1275.22 123.655C1275.22 125.655 1273.78 127.431 1270.87 127.431C1267.94 127.431 1266.52 125.655 1266.52 123.655C1266.52 122.391 1266.97 121.559 1267.83 120.935V120.775L1266.74 120.615V118.567H1275V120.615L1273.9 120.775V120.935C1274.78 121.559 1275.22 122.375 1275.22 123.655ZM1273.4 122.951C1273.4 121.639 1272.44 120.727 1270.87 120.727C1269.3 120.727 1268.34 121.639 1268.34 122.951C1268.34 124.231 1269.19 125.159 1270.87 125.159C1272.55 125.159 1273.4 124.231 1273.4 122.951ZM1275 114.266V116.49H1263.58V114.266H1275ZM1275 109.958V112.182H1263.58V109.958H1269.98V109.798L1266.74 106.886V104.23L1270.47 107.734L1275 104.182V106.934L1271.29 109.798V109.958H1275ZM1275.22 99.5743C1275.22 102.294 1273.67 104.006 1270.87 104.006C1267.96 104.006 1266.52 102.166 1266.52 99.5743C1266.52 97.0783 1268.07 95.4623 1270.65 95.4623C1270.9 95.4623 1271.19 95.4783 1271.46 95.5103V101.798C1272.84 101.654 1273.58 100.774 1273.58 99.5903C1273.58 98.8703 1273.27 98.2303 1272.73 97.8943V95.7343C1274.23 96.2143 1275.22 97.6063 1275.22 99.5743ZM1269.98 101.75V97.6703C1268.76 97.8463 1268.17 98.7103 1268.17 99.6863C1268.17 100.662 1268.81 101.542 1269.98 101.75ZM1275 91.4666V93.6906H1270.41C1267.69 93.6906 1266.52 92.0906 1266.52 89.4986C1266.52 86.8906 1267.66 85.3066 1270.38 85.3066H1275V87.5146H1270.38C1269.08 87.5146 1268.41 88.2026 1268.41 89.4986C1268.41 90.7946 1269.1 91.4666 1270.41 91.4666H1275ZM1275.22 79.7223C1275.22 82.6343 1273.99 83.5463 1272.81 83.5463C1272.71 83.5463 1272.6 83.5303 1272.52 83.5143V81.3223H1272.6C1273.16 81.3223 1273.58 80.6823 1273.58 79.7223C1273.58 78.8263 1273.3 78.1223 1272.65 78.1223C1271.13 78.1223 1272.6 83.4823 1269.18 83.4823C1267.56 83.4823 1266.52 82.0103 1266.52 79.8183C1266.52 77.2423 1267.56 76.0743 1269 76.0743C1269.08 76.0743 1269.14 76.0743 1269.22 76.0903V78.2823C1269.21 78.2823 1269.18 78.2663 1269.11 78.2663C1268.63 78.2663 1268.17 78.6983 1268.17 79.8183C1268.17 80.7303 1268.42 81.2903 1269.08 81.2903C1270.63 81.2903 1269.11 75.9303 1272.54 75.9303C1274.15 75.9303 1275.22 77.3223 1275.22 79.7223ZM1275 70.7724V72.9804H1268.63V74.8044H1266.74V72.9804H1264.54V70.7724H1266.74V68.6604H1268.63V70.7724H1275ZM1275.22 63.4199C1275.22 66.1399 1273.67 67.8519 1270.87 67.8519C1267.96 67.8519 1266.52 66.0119 1266.52 63.4199C1266.52 60.9239 1268.07 59.3079 1270.65 59.3079C1270.9 59.3079 1271.19 59.3239 1271.46 59.3559V65.6439C1272.84 65.4999 1273.58 64.6199 1273.58 63.4359C1273.58 62.7159 1273.27 62.0759 1272.73 61.7399V59.5799C1274.23 60.0599 1275.22 61.4519 1275.22 63.4199ZM1269.98 65.5959V61.5159C1268.76 61.6919 1268.17 62.5559 1268.17 63.5319C1268.17 64.5079 1268.81 65.3879 1269.98 65.5959ZM1265.75 56.4323C1265.75 57.1843 1265.21 57.7283 1264.46 57.7283C1263.7 57.7283 1263.16 57.1843 1263.16 56.4323C1263.16 55.6803 1263.7 55.1363 1264.46 55.1363C1265.21 55.1363 1265.75 55.6803 1265.75 56.4323ZM1275 55.3123V57.5363H1266.74V55.3123H1275ZM1275 51.0041V53.2281H1270.41C1267.69 53.2281 1266.52 51.6281 1266.52 49.0361C1266.52 46.4281 1267.66 44.8441 1270.38 44.8441H1275V47.0521H1270.38C1269.08 47.0521 1268.41 47.7401 1268.41 49.0361C1268.41 50.3321 1269.1 51.0041 1270.41 51.0041H1275ZM1294.22 132.856C1294.22 135.368 1292.85 136.712 1290.58 136.712C1290.48 136.712 1290.38 136.696 1290.29 136.696V135.256C1290.34 135.272 1290.37 135.272 1290.42 135.272C1292.26 135.272 1293.02 134.264 1293.02 132.76C1293.02 131.32 1292.1 130.376 1290.77 130.376C1289.46 130.376 1288.62 131.4 1288.62 132.712V133.4H1287.46V132.84C1287.46 131.624 1286.67 130.68 1285.49 130.68C1284.24 130.68 1283.55 131.624 1283.55 132.888C1283.55 134.136 1284.26 135.192 1285.89 135.192H1286.11V136.632H1285.87C1283.49 136.632 1282.35 135.048 1282.35 132.904C1282.35 131.256 1283.02 129.224 1285.41 129.224C1286.61 129.224 1287.47 129.96 1287.86 131.016H1288.02C1288.32 129.848 1289.46 128.92 1290.74 128.92C1293.18 128.92 1294.22 130.904 1294.22 132.856ZM1294.11 126.418C1294.11 127.026 1293.66 127.474 1293.06 127.474C1292.48 127.474 1292.03 127.026 1292.03 126.418C1292.03 125.842 1292.48 125.394 1293.06 125.394C1293.66 125.394 1294.11 125.842 1294.11 126.418ZM1294.22 120.043C1294.22 122.923 1292.67 123.899 1291.07 123.899C1290.98 123.899 1290.86 123.883 1290.78 123.883V122.443H1290.99C1292.14 122.443 1293.02 121.707 1293.02 120.075C1293.02 118.587 1292.14 117.579 1290.48 117.579C1289.14 117.579 1288.06 118.331 1288.06 119.963C1288.06 120.875 1288.3 121.611 1289.12 122.219L1288.86 123.579L1282.58 123.227V116.891H1283.87V122.043L1287.66 122.251V122.107C1287.15 121.355 1286.93 120.747 1286.93 119.675C1286.93 117.691 1288.19 116.123 1290.5 116.123C1292.91 116.123 1294.22 117.883 1294.22 120.043ZM1294.22 110.934C1294.22 113.814 1292.67 114.79 1291.07 114.79C1290.98 114.79 1290.86 114.774 1290.78 114.774V113.334H1290.99C1292.14 113.334 1293.02 112.598 1293.02 110.966C1293.02 109.478 1292.14 108.47 1290.48 108.47C1289.14 108.47 1288.06 109.222 1288.06 110.854C1288.06 111.766 1288.3 112.502 1289.12 113.11L1288.86 114.47L1282.58 114.118V107.782H1283.87V112.934L1287.66 113.142V112.998C1287.15 112.246 1286.93 111.638 1286.93 110.566C1286.93 108.582 1288.19 107.014 1290.5 107.014C1292.91 107.014 1294.22 108.774 1294.22 110.934ZM1294.22 101.585C1294.22 103.729 1292.8 105.681 1288.29 105.681C1283.78 105.681 1282.35 103.729 1282.35 101.585C1282.35 99.4574 1283.78 97.4894 1288.29 97.4894C1292.8 97.4894 1294.22 99.4574 1294.22 101.585ZM1292.99 101.585C1292.99 100.209 1291.89 98.9454 1288.29 98.9454C1284.69 98.9454 1283.57 100.209 1283.57 101.585C1283.57 102.961 1284.69 104.241 1288.29 104.241C1291.89 104.241 1292.99 102.961 1292.99 101.585ZM1294 94.2795V95.6875H1289.49C1286.77 95.6875 1285.52 94.3755 1285.52 92.2635C1285.52 90.8875 1286 89.9275 1287.1 89.3995V89.2395C1286.03 88.7275 1285.52 87.7675 1285.52 86.4235C1285.52 84.2955 1286.66 82.9995 1289.38 82.9995H1294V84.4075H1289.38C1287.49 84.4075 1286.72 85.2235 1286.72 86.5195C1286.72 87.8315 1287.57 88.6475 1289.49 88.6475H1294V90.0395H1289.38C1287.49 90.0395 1286.72 90.8555 1286.72 92.1675C1286.72 93.4635 1287.57 94.2795 1289.49 94.2795H1294Z" fill="#2F3342"/>
<path d="M1104 130.02V132.356H1092.58V130.02H1097.23L1097.23 124.564H1092.58V122.228H1104V124.564H1099.34V130.02H1104ZM1104.22 115.949C1104.22 118.557 1102.82 120.461 1099.87 120.461C1096.93 120.461 1095.52 118.557 1095.52 115.949C1095.52 113.309 1096.93 111.437 1099.87 111.437C1102.82 111.437 1104.22 113.309 1104.22 115.949ZM1102.46 115.933C1102.46 114.605 1101.62 113.709 1099.87 113.709C1098.11 113.709 1097.28 114.621 1097.28 115.965C1097.28 117.309 1098.11 118.189 1099.87 118.189C1101.62 118.189 1102.46 117.293 1102.46 115.933ZM1104 107.453V109.677H1092.58V107.453H1104ZM1104 101.817V104.025H1097.63V105.849H1095.74V104.025H1093.54V101.817H1095.74V99.7048H1097.63V101.817H1104ZM1104.22 94.4643C1104.22 97.1843 1102.67 98.8963 1099.87 98.8963C1096.96 98.8963 1095.52 97.0563 1095.52 94.4643C1095.52 91.9683 1097.07 90.3523 1099.65 90.3523C1099.9 90.3523 1100.19 90.3683 1100.46 90.4003V96.6883C1101.84 96.5443 1102.58 95.6643 1102.58 94.4803C1102.58 93.7603 1102.27 93.1203 1101.73 92.7843V90.6243C1103.23 91.1043 1104.22 92.4963 1104.22 94.4643ZM1098.98 96.6403V92.5603C1097.76 92.7363 1097.17 93.6003 1097.17 94.5763C1097.17 95.5523 1097.81 96.4323 1098.98 96.6403ZM1104 86.3567V88.5807H1099.41C1096.69 88.5807 1095.52 86.9807 1095.52 84.3887C1095.52 81.7807 1096.66 80.1967 1099.38 80.1967H1104V82.4047H1099.38C1098.08 82.4047 1097.41 83.0927 1097.41 84.3887C1097.41 85.6847 1098.1 86.3567 1099.41 86.3567H1104ZM1104.22 74.6603C1104.22 76.6603 1102.78 78.4363 1099.87 78.4363C1096.94 78.4363 1095.52 76.6603 1095.52 74.6603C1095.52 73.3963 1095.97 72.5643 1096.83 71.9403V71.7803L1095.74 71.6203V69.5723H1104V71.6203L1102.9 71.7803V71.9403C1103.78 72.5643 1104.22 73.3803 1104.22 74.6603ZM1102.4 73.9563C1102.4 72.6443 1101.44 71.7323 1099.87 71.7323C1098.3 71.7323 1097.34 72.6443 1097.34 73.9563C1097.34 75.2363 1098.19 76.1643 1099.87 76.1643C1101.55 76.1643 1102.4 75.2363 1102.4 73.9563ZM1104.22 63.3037C1104.22 65.8957 1103.09 67.4957 1100.37 67.4957H1095.74V65.2717H1100.37C1101.66 65.2717 1102.34 64.5997 1102.34 63.3037C1102.34 62.0077 1101.63 61.3197 1100.32 61.3197H1095.74V59.1117H1100.32C1103.04 59.1117 1104.22 60.7117 1104.22 63.3037ZM1123.22 128.932C1123.22 131.812 1121.67 132.788 1120.07 132.788C1119.98 132.788 1119.86 132.772 1119.78 132.772V131.332H1119.99C1121.14 131.332 1122.02 130.596 1122.02 128.964C1122.02 127.476 1121.14 126.468 1119.48 126.468C1118.14 126.468 1117.06 127.22 1117.06 128.852C1117.06 129.764 1117.3 130.5 1118.12 131.108L1117.86 132.468L1111.58 132.116V125.78H1112.87V130.932L1116.66 131.14V130.996C1116.15 130.244 1115.93 129.636 1115.93 128.564C1115.93 126.58 1117.19 125.012 1119.5 125.012C1121.91 125.012 1123.22 126.772 1123.22 128.932ZM1123.22 119.583C1123.22 121.727 1121.8 123.679 1117.29 123.679C1112.78 123.679 1111.35 121.727 1111.35 119.583C1111.35 117.455 1112.78 115.487 1117.29 115.487C1121.8 115.487 1123.22 117.455 1123.22 119.583ZM1121.99 119.583C1121.99 118.207 1120.89 116.943 1117.29 116.943C1113.69 116.943 1112.57 118.207 1112.57 119.583C1112.57 120.959 1113.69 122.239 1117.29 122.239C1120.89 122.239 1121.99 120.959 1121.99 119.583ZM1123 112.277V113.685H1118.49C1115.77 113.685 1114.52 112.373 1114.52 110.261C1114.52 108.885 1115 107.925 1116.1 107.397V107.237C1115.03 106.725 1114.52 105.765 1114.52 104.421C1114.52 102.293 1115.66 100.997 1118.38 100.997H1123V102.405H1118.38C1116.49 102.405 1115.72 103.221 1115.72 104.517C1115.72 105.829 1116.57 106.645 1118.49 106.645H1123V108.037H1118.38C1116.49 108.037 1115.72 108.853 1115.72 110.165C1115.72 111.461 1116.57 112.277 1118.49 112.277H1123Z" fill="#2F3342"/>
<path d="M913.224 125.703C913.224 129.511 911.368 130.551 909.688 130.551H909.368V128.215H909.576C910.648 128.215 911.224 127.335 911.224 125.815C911.224 124.247 910.744 123.511 909.864 123.511C907.592 123.511 909.24 130.487 904.84 130.487C902.696 130.487 901.352 128.679 901.352 125.927C901.352 122.679 902.776 121.239 904.888 121.239C905 121.239 905.112 121.239 905.208 121.255V123.591C905.128 123.575 905.064 123.575 904.984 123.575C904.04 123.575 903.352 124.183 903.352 125.831C903.352 127.255 903.8 128.023 904.68 128.023C907 128.023 905.384 121.047 909.736 121.047C911.784 121.047 913.224 122.791 913.224 125.703ZM913.224 115.172C913.224 117.892 911.672 119.604 908.872 119.604C905.96 119.604 904.52 117.764 904.52 115.172C904.52 112.676 906.072 111.06 908.648 111.06C908.904 111.06 909.192 111.076 909.464 111.108V117.396C910.84 117.252 911.576 116.372 911.576 115.188C911.576 114.468 911.272 113.828 910.728 113.492V111.332C912.232 111.812 913.224 113.204 913.224 115.172ZM907.976 117.348V113.268C906.76 113.444 906.168 114.308 906.168 115.284C906.168 116.26 906.808 117.14 907.976 117.348ZM913.224 105.176C913.224 107.896 911.672 109.608 908.872 109.608C905.96 109.608 904.52 107.768 904.52 105.176C904.52 102.68 906.072 101.064 908.648 101.064C908.904 101.064 909.192 101.08 909.464 101.112V107.4C910.84 107.256 911.576 106.376 911.576 105.192C911.576 104.472 911.272 103.832 910.728 103.496V101.336C912.232 101.816 913.224 103.208 913.224 105.176ZM907.976 107.352V103.272C906.76 103.448 906.168 104.312 906.168 105.288C906.168 106.264 906.808 107.144 907.976 107.352ZM913.224 94.1885C913.224 95.4685 912.776 96.2845 911.912 96.9085V97.0685L913 97.2285V99.2925H901.576V97.0685H905.848V96.9085C904.968 96.3005 904.52 95.4685 904.52 94.1885C904.52 92.2045 905.96 90.4285 908.872 90.4285C911.8 90.4285 913.224 92.2045 913.224 94.1885ZM911.4 94.9085C911.4 93.6125 910.552 92.7005 908.872 92.7005C907.192 92.7005 906.344 93.6125 906.344 94.9085C906.344 96.2205 907.304 97.1325 908.872 97.1325C910.44 97.1325 911.4 96.2205 911.4 94.9085ZM913.224 85.2159C913.224 87.2159 911.784 88.9919 908.872 88.9919C905.944 88.9919 904.52 87.2159 904.52 85.2159C904.52 83.9519 904.968 83.1199 905.832 82.4959V82.3359L904.744 82.1759V80.1279H913V82.1759L911.896 82.3359V82.4959C912.776 83.1199 913.224 83.9359 913.224 85.2159ZM911.4 84.5119C911.4 83.1999 910.44 82.2879 908.872 82.2879C907.304 82.2879 906.344 83.1999 906.344 84.5119C906.344 85.7919 907.192 86.7199 908.872 86.7199C910.552 86.7199 911.4 85.7919 911.4 84.5119ZM913 75.8273V78.0513H904.744V75.9873L906.008 75.8273V75.6673C905.176 75.0913 904.744 74.3073 904.744 72.8033H906.792C906.76 73.0113 906.76 73.2193 906.76 73.4113C906.76 75.0113 907.592 75.8273 909.336 75.8273H913ZM932.224 126.375C932.224 129.847 929.52 130.711 926.496 130.711C922.544 130.711 920.352 129.175 920.352 126.455C920.352 123.959 921.792 122.855 923.6 122.743V124.183C922.352 124.327 921.52 125.063 921.52 126.423C921.52 128.327 923.184 129.271 926.512 129.271V129.111C925.52 128.423 925.024 127.447 925.024 126.071C925.024 123.959 926.208 122.391 928.56 122.391C930.624 122.391 932.224 124.023 932.224 126.375ZM931.056 126.375C931.056 124.679 929.856 123.831 928.56 123.831C927.248 123.831 926.16 124.567 926.16 126.375C926.16 128.039 927.312 128.999 928.608 128.999C929.92 128.999 931.056 128.199 931.056 126.375ZM932 119.185V120.593H927.488C924.768 120.593 923.52 119.281 923.52 117.169C923.52 115.793 924 114.833 925.104 114.305V114.145C924.032 113.633 923.52 112.673 923.52 111.329C923.52 109.201 924.656 107.905 927.376 107.905H932V109.313H927.376C925.488 109.313 924.72 110.129 924.72 111.425C924.72 112.737 925.568 113.553 927.488 113.553H932V114.945H927.376C925.488 114.945 924.72 115.761 924.72 117.073C924.72 118.369 925.568 119.185 927.488 119.185H932Z" fill="#2F3342"/>
<path d="M862 124.123V130.091H850.576V124.443C850.576 121.883 851.904 120.923 853.504 120.923C854.688 120.923 855.68 121.435 856.16 122.651H856.32C856.752 121.195 857.824 120.603 859.072 120.603C860.688 120.603 862 121.563 862 124.123ZM852.608 127.819H855.264V124.587C855.264 123.563 854.608 123.179 853.888 123.179C853.168 123.179 852.608 123.563 852.608 124.587V127.819ZM857.312 127.819H859.952V124.411C859.952 123.387 859.296 122.987 858.592 122.987C857.856 122.987 857.312 123.403 857.312 124.443V127.819ZM862.224 114.733C862.224 117.453 860.672 119.165 857.872 119.165C854.96 119.165 853.52 117.325 853.52 114.733C853.52 112.237 855.072 110.621 857.648 110.621C857.904 110.621 858.192 110.637 858.464 110.669V116.957C859.84 116.813 860.576 115.933 860.576 114.749C860.576 114.029 860.272 113.389 859.728 113.053V110.893C861.232 111.373 862.224 112.765 862.224 114.733ZM856.976 116.909V112.829C855.76 113.005 855.168 113.869 855.168 114.845C855.168 115.821 855.808 116.701 856.976 116.909ZM862 106.626V108.85H850.576V106.626H862ZM862 102.317V104.541H850.576V102.317H862ZM862.224 96.1213C862.224 98.8413 860.672 100.553 857.872 100.553C854.96 100.553 853.52 98.7133 853.52 96.1213C853.52 93.6253 855.072 92.0093 857.648 92.0093C857.904 92.0093 858.192 92.0253 858.464 92.0573V98.3453C859.84 98.2013 860.576 97.3213 860.576 96.1373C860.576 95.4173 860.272 94.7773 859.728 94.4413V92.2813C861.232 92.7613 862.224 94.1533 862.224 96.1213ZM856.976 98.2973V94.2173C855.76 94.3933 855.168 95.2573 855.168 96.2333C855.168 97.2093 855.808 98.0893 856.976 98.2973ZM862 85.7212V88.1212L853.744 91.5452V89.0972L859.36 86.9372V86.7772L853.744 84.6172V82.2972L862 85.7212ZM862.224 77.1438C862.224 79.7358 861.088 81.3358 858.368 81.3358H853.744V79.1118H858.368C859.664 79.1118 860.336 78.4398 860.336 77.1438C860.336 75.8478 859.632 75.1598 858.32 75.1598H853.744V72.9518H858.32C861.04 72.9518 862.224 74.5518 862.224 77.1438ZM862.224 66.8844C862.224 69.6044 860.672 71.3164 857.872 71.3164C854.96 71.3164 853.52 69.4764 853.52 66.8844C853.52 64.3884 855.072 62.7724 857.648 62.7724C857.904 62.7724 858.192 62.7884 858.464 62.8204V69.1084C859.84 68.9644 860.576 68.0844 860.576 66.9004C860.576 66.1804 860.272 65.5404 859.728 65.2044V63.0444C861.232 63.5244 862.224 64.9164 862.224 66.8844ZM856.976 69.0604V64.9804C855.76 65.1564 855.168 66.0204 855.168 66.9964C855.168 67.9724 855.808 68.8524 856.976 69.0604ZM881.224 126.187C881.224 129.659 878.52 130.523 875.496 130.523C871.544 130.523 869.352 128.987 869.352 126.267C869.352 123.771 870.792 122.667 872.6 122.555V123.995C871.352 124.139 870.52 124.875 870.52 126.235C870.52 128.139 872.184 129.083 875.512 129.083V128.923C874.52 128.235 874.024 127.259 874.024 125.883C874.024 123.771 875.208 122.203 877.56 122.203C879.624 122.203 881.224 123.835 881.224 126.187ZM880.056 126.187C880.056 124.491 878.856 123.643 877.56 123.643C876.248 123.643 875.16 124.379 875.16 126.187C875.16 127.851 876.312 128.811 877.608 128.811C878.92 128.811 880.056 128.011 880.056 126.187ZM881 118.996V120.404H876.488C873.768 120.404 872.52 119.092 872.52 116.98C872.52 115.604 873 114.644 874.104 114.116V113.956C873.032 113.444 872.52 112.484 872.52 111.14C872.52 109.012 873.656 107.716 876.376 107.716H881V109.124H876.376C874.488 109.124 873.72 109.94 873.72 111.236C873.72 112.548 874.568 113.364 876.488 113.364H881V114.756H876.376C874.488 114.756 873.72 115.572 873.72 116.884C873.72 118.18 874.568 118.996 876.488 118.996H881Z" fill="#2F3342"/>
<path d="M753 129.642V131.978H741.576V127.098C741.576 123.786 743.144 122.826 744.856 122.826C746.408 122.826 747.368 123.418 747.848 124.778H748.008C748.408 123.61 749.208 123.082 750.808 122.746L753 122.298V124.682L750.856 125.098C749.608 125.338 749 125.866 749 127.306V129.642H753ZM743.688 129.642H746.888V127.37C746.888 125.946 746.312 125.274 745.256 125.274C744.168 125.274 743.688 125.946 743.688 127.37V129.642ZM753.224 116.855C753.224 119.575 751.672 121.287 748.872 121.287C745.96 121.287 744.52 119.447 744.52 116.855C744.52 114.359 746.072 112.743 748.648 112.743C748.904 112.743 749.192 112.759 749.464 112.791V119.079C750.84 118.935 751.576 118.055 751.576 116.871C751.576 116.151 751.272 115.511 750.728 115.175V113.015C752.232 113.495 753.224 114.887 753.224 116.855ZM747.976 119.031V114.951C746.76 115.127 746.168 115.991 746.168 116.967C746.168 117.943 746.808 118.823 747.976 119.031ZM753 106.455V108.855L744.744 112.279V109.831L750.36 107.671V107.511L744.744 105.351V103.031L753 106.455ZM753.224 98.145C753.224 100.865 751.672 102.577 748.872 102.577C745.96 102.577 744.52 100.737 744.52 98.145C744.52 95.649 746.072 94.033 748.648 94.033C748.904 94.033 749.192 94.049 749.464 94.081V100.369C750.84 100.225 751.576 99.345 751.576 98.161C751.576 97.441 751.272 96.801 750.728 96.465V94.305C752.232 94.785 753.224 96.177 753.224 98.145ZM747.976 100.321V96.241C746.76 96.417 746.168 97.281 746.168 98.257C746.168 99.233 746.808 100.113 747.976 100.321ZM753 90.0373V92.2613H748.408C745.688 92.2613 744.52 90.6613 744.52 88.0693C744.52 85.4613 745.656 83.8773 748.376 83.8773H753V86.0853H748.376C747.08 86.0853 746.408 86.7733 746.408 88.0693C746.408 89.3653 747.096 90.0373 748.408 90.0373H753ZM753 78.62V80.828H746.632V82.652H744.744V80.828H742.536V78.62H744.744V76.508H746.632V78.62H753ZM753 72.6867V74.9107H741.576V72.6867H753ZM753.224 66.4106C753.224 69.0186 751.816 70.9226 748.872 70.9226C745.928 70.9226 744.52 69.0186 744.52 66.4106C744.52 63.7706 745.928 61.8986 748.872 61.8986C751.816 61.8986 753.224 63.7706 753.224 66.4106ZM751.464 66.3946C751.464 65.0666 750.616 64.1706 748.872 64.1706C747.112 64.1706 746.28 65.0826 746.28 66.4266C746.28 67.7706 747.112 68.6506 748.872 68.6506C750.616 68.6506 751.464 67.7546 751.464 66.3946ZM753.224 56.0712C753.224 58.6632 752.088 60.2632 749.368 60.2632H744.744V58.0392H749.368C750.664 58.0392 751.336 57.3672 751.336 56.0712C751.336 54.7752 750.632 54.0872 749.32 54.0872H744.744V51.8792H749.32C752.04 51.8792 753.224 53.4792 753.224 56.0712ZM772.224 128.634C772.224 131.146 770.848 132.49 768.576 132.49C768.48 132.49 768.384 132.474 768.288 132.474V131.034C768.336 131.05 768.368 131.05 768.416 131.05C770.256 131.05 771.024 130.042 771.024 128.538C771.024 127.098 770.096 126.154 768.768 126.154C767.456 126.154 766.624 127.178 766.624 128.49V129.178H765.456V128.618C765.456 127.402 764.672 126.458 763.488 126.458C762.24 126.458 761.552 127.402 761.552 128.666C761.552 129.914 762.256 130.97 763.888 130.97H764.112V132.41H763.872C761.488 132.41 760.352 130.826 760.352 128.682C760.352 127.034 761.024 125.002 763.408 125.002C764.608 125.002 765.472 125.738 765.856 126.794H766.016C766.32 125.626 767.456 124.698 768.736 124.698C771.184 124.698 772.224 126.682 772.224 128.634ZM772.224 119.508C772.224 122.388 770.672 123.364 769.072 123.364C768.976 123.364 768.864 123.348 768.784 123.348V121.908H768.992C770.144 121.908 771.024 121.172 771.024 119.54C771.024 118.052 770.144 117.044 768.48 117.044C767.136 117.044 766.064 117.796 766.064 119.428C766.064 120.34 766.304 121.076 767.12 121.684L766.864 123.044L760.576 122.692V116.356H761.872V121.508L765.664 121.716V121.572C765.152 120.82 764.928 120.212 764.928 119.14C764.928 117.156 766.192 115.588 768.496 115.588C770.912 115.588 772.224 117.348 772.224 119.508ZM772 112.415V113.823H767.488C764.768 113.823 763.52 112.511 763.52 110.399C763.52 109.023 764 108.063 765.104 107.535V107.375C764.032 106.863 763.52 105.903 763.52 104.559C763.52 102.431 764.656 101.135 767.376 101.135H772V102.543H767.376C765.488 102.543 764.72 103.359 764.72 104.655C764.72 105.967 765.568 106.783 767.488 106.783H772V108.175H767.376C765.488 108.175 764.72 108.991 764.72 110.303C764.72 111.599 765.568 112.415 767.488 112.415H772Z" fill="#2F3342"/>
<path d="M183 131.152V133.488H171.576V131.152H176.232V125.696H171.576V123.36H183V125.696H178.344V131.152H183ZM183.224 117.818C183.224 119.818 181.784 121.594 178.872 121.594C175.944 121.594 174.52 119.818 174.52 117.818C174.52 116.554 174.968 115.722 175.832 115.098V114.938L174.744 114.778V112.73H183V114.778L181.896 114.938V115.098C182.776 115.722 183.224 116.538 183.224 117.818ZM181.4 117.114C181.4 115.802 180.44 114.89 178.872 114.89C177.304 114.89 176.344 115.802 176.344 117.114C176.344 118.394 177.192 119.322 178.872 119.322C180.552 119.322 181.4 118.394 181.4 117.114ZM183.224 107.149C183.224 110.061 181.992 110.973 180.808 110.973C180.712 110.973 180.6 110.957 180.52 110.941V108.749H180.6C181.16 108.749 181.576 108.109 181.576 107.149C181.576 106.253 181.304 105.549 180.648 105.549C179.128 105.549 180.6 110.909 177.176 110.909C175.56 110.909 174.52 109.437 174.52 107.245C174.52 104.669 175.56 103.501 177 103.501C177.08 103.501 177.144 103.501 177.224 103.517V105.709C177.208 105.709 177.176 105.693 177.112 105.693C176.632 105.693 176.168 106.125 176.168 107.245C176.168 108.157 176.424 108.717 177.08 108.717C178.632 108.717 177.112 103.357 180.536 103.357C182.152 103.357 183.224 104.749 183.224 107.149ZM183.224 98.1536C183.224 101.066 181.992 101.978 180.808 101.978C180.712 101.978 180.6 101.962 180.52 101.946V99.7536H180.6C181.16 99.7536 181.576 99.1136 181.576 98.1536C181.576 97.2576 181.304 96.5536 180.648 96.5536C179.128 96.5536 180.6 101.914 177.176 101.914C175.56 101.914 174.52 100.442 174.52 98.2496C174.52 95.6736 175.56 94.5056 177 94.5056C177.08 94.5056 177.144 94.5056 177.224 94.5216V96.7136C177.208 96.7136 177.176 96.6976 177.112 96.6976C176.632 96.6976 176.168 97.1296 176.168 98.2496C176.168 99.1616 176.424 99.7216 177.08 99.7216C178.632 99.7216 177.112 94.3616 180.536 94.3616C182.152 94.3616 183.224 95.7536 183.224 98.1536ZM183.224 88.6124C183.224 91.3324 181.672 93.0444 178.872 93.0444C175.96 93.0444 174.52 91.2044 174.52 88.6124C174.52 86.1164 176.072 84.5004 178.648 84.5004C178.904 84.5004 179.192 84.5164 179.464 84.5484V90.8364C180.84 90.6924 181.576 89.8124 181.576 88.6284C181.576 87.9084 181.272 87.2684 180.728 86.9324V84.7724C182.232 85.2524 183.224 86.6444 183.224 88.6124ZM177.976 90.7884V86.7084C176.76 86.8844 176.168 87.7484 176.168 88.7244C176.168 89.7004 176.808 90.5804 177.976 90.7884ZM183 80.5048V82.7288H171.576V80.5048H183ZM183 75.2207V77.4447H176.632V78.9007H174.744V77.4447H174.088C172.056 77.4447 171.352 76.3407 171.352 74.7727C171.352 74.2607 171.448 73.6847 171.56 73.0927H173.272C173.224 73.5087 173.176 73.8767 173.176 74.1807C173.176 74.8687 173.4 75.2207 174.232 75.2207H174.744V73.0927H176.632V75.2207H183ZM183.224 67.9381C183.224 70.6581 181.672 72.3701 178.872 72.3701C175.96 72.3701 174.52 70.5301 174.52 67.9381C174.52 65.4421 176.072 63.8261 178.648 63.8261C178.904 63.8261 179.192 63.8421 179.464 63.8741V70.1621C180.84 70.0181 181.576 69.1381 181.576 67.9541C181.576 67.2341 181.272 66.5941 180.728 66.2581V64.0981C182.232 64.5781 183.224 65.9701 183.224 67.9381ZM177.976 70.1141V66.0341C176.76 66.2101 176.168 67.0741 176.168 68.0501C176.168 69.0261 176.808 69.9061 177.976 70.1141ZM183 59.8304V62.0544H171.576V59.8304H183ZM183.224 54.2903C183.224 56.2903 181.8 58.0663 178.872 58.0663C175.96 58.0663 174.52 56.2903 174.52 54.2903C174.52 53.0263 174.952 52.1943 175.832 51.5703V51.4103H171.576V49.2023H183V51.2503L181.896 51.4103V51.5703C182.76 52.1943 183.224 53.0103 183.224 54.2903ZM181.4 53.5863C181.4 52.2743 180.44 51.3623 178.872 51.3623C177.304 51.3623 176.344 52.2743 176.344 53.5863C176.344 54.8663 177.192 55.7943 178.872 55.7943C180.552 55.7943 181.4 54.8663 181.4 53.5863ZM183.224 43.0137C183.224 45.7337 181.672 47.4457 178.872 47.4457C175.96 47.4457 174.52 45.6057 174.52 43.0137C174.52 40.5177 176.072 38.9017 178.648 38.9017C178.904 38.9017 179.192 38.9177 179.464 38.9497V45.2377C180.84 45.0937 181.576 44.2137 181.576 43.0297C181.576 42.3097 181.272 41.6697 180.728 41.3337V39.1737C182.232 39.6537 183.224 41.0457 183.224 43.0137ZM177.976 45.1897V41.1097C176.76 41.2857 176.168 42.1497 176.168 43.1257C176.168 44.1017 176.808 44.9817 177.976 45.1897ZM202 129.536V130.944H192.128V131.104L193.472 133.424L192.352 134.048L190.576 130.944V129.536H202ZM202.224 123.397C202.224 126.869 199.52 127.733 196.496 127.733C192.544 127.733 190.352 126.197 190.352 123.477C190.352 120.981 191.792 119.877 193.6 119.765V121.205C192.352 121.349 191.52 122.085 191.52 123.445C191.52 125.349 193.184 126.293 196.512 126.293V126.133C195.52 125.445 195.024 124.469 195.024 123.093C195.024 120.981 196.208 119.413 198.56 119.413C200.624 119.413 202.224 121.045 202.224 123.397ZM201.056 123.397C201.056 121.701 199.856 120.853 198.56 120.853C197.248 120.853 196.16 121.589 196.16 123.397C196.16 125.061 197.312 126.021 198.608 126.021C199.92 126.021 201.056 125.221 201.056 123.397ZM202.224 113.95C202.224 116.094 200.8 118.046 196.288 118.046C191.776 118.046 190.352 116.094 190.352 113.95C190.352 111.822 191.776 109.854 196.288 109.854C200.8 109.854 202.224 111.822 202.224 113.95ZM200.992 113.95C200.992 112.574 199.888 111.31 196.288 111.31C192.688 111.31 191.568 112.574 191.568 113.95C191.568 115.326 192.688 116.606 196.288 116.606C199.888 116.606 200.992 115.326 200.992 113.95ZM202 106.645V108.053H197.488C194.768 108.053 193.52 106.741 193.52 104.629C193.52 103.253 194 102.293 195.104 101.765V101.605C194.032 101.093 193.52 100.133 193.52 98.7886C193.52 96.6606 194.656 95.3646 197.376 95.3646H202V96.7726H197.376C195.488 96.7726 194.72 97.5886 194.72 98.8846C194.72 100.197 195.568 101.013 197.488 101.013H202V102.405H197.376C195.488 102.405 194.72 103.221 194.72 104.533C194.72 105.829 195.568 106.645 197.488 106.645H202Z" fill="#2F3342"/>
<path d="M1049.48 211H1048.04V199.576H1049.48V204.648H1056.28V199.576H1057.72V211H1056.28V205.928H1049.48V211ZM1062.23 201.416C1061.68 201.416 1061.28 201.016 1061.28 200.472C1061.28 199.944 1061.68 199.544 1062.23 199.544C1062.76 199.544 1063.16 199.944 1063.16 200.472C1063.16 201.016 1062.76 201.416 1062.23 201.416ZM1065.7 201.416C1065.16 201.416 1064.76 201.016 1064.76 200.472C1064.76 199.944 1065.16 199.544 1065.7 199.544C1066.23 199.544 1066.63 199.944 1066.63 200.472C1066.63 201.016 1066.23 201.416 1065.7 201.416ZM1063.96 211.224C1061.46 211.224 1059.64 209.816 1059.64 206.872C1059.64 203.928 1061.46 202.52 1063.96 202.52C1066.48 202.52 1068.28 203.928 1068.28 206.872C1068.28 209.816 1066.48 211.224 1063.96 211.224ZM1063.96 210.056C1065.67 210.056 1066.85 209.016 1066.85 206.872C1066.85 204.712 1065.65 203.688 1063.96 203.688C1062.26 203.688 1061.06 204.712 1061.06 206.872C1061.06 209.016 1062.26 210.056 1063.96 210.056ZM1071.6 211H1070.19V202.744H1071.44L1071.6 204.056H1071.76C1072.37 203.16 1073.34 202.744 1074.99 202.744V204.056C1074.78 204.04 1074.56 204.024 1074.37 204.024C1072.43 204.024 1071.6 205.096 1071.6 207.032V211ZM1077.38 211H1075.97V206.488C1075.97 203.768 1077.49 202.52 1079.97 202.52C1082.47 202.52 1083.97 203.656 1083.97 206.376V211H1082.58V206.376C1082.58 204.488 1081.55 203.72 1079.97 203.72C1078.39 203.72 1077.38 204.568 1077.38 206.488V211Z" fill="#2F3342"/>
<path d="M1524.53 211.224C1521.3 211.224 1519.94 209.672 1519.94 207.832V207.608H1521.38V207.752C1521.38 208.984 1522.26 209.976 1524.5 209.976C1526.69 209.976 1527.62 209.096 1527.62 207.944C1527.62 204.904 1520.26 207.16 1520.26 202.616C1520.26 200.824 1521.59 199.352 1524.5 199.352C1527.59 199.352 1528.79 200.904 1528.79 202.808V202.968H1527.35V202.84C1527.35 201.544 1526.56 200.6 1524.5 200.6C1522.56 200.6 1521.73 201.48 1521.73 202.6C1521.73 205.784 1529.09 203.528 1529.09 207.96C1529.09 209.704 1527.67 211.224 1524.53 211.224ZM1533.81 211H1532.4V203.944H1530.37V202.744H1532.4V200.536H1533.81V202.744H1536.05V203.944H1533.81V211ZM1539.21 211H1537.8V202.744H1539.05L1539.21 204.056H1539.37C1539.98 203.16 1540.95 202.744 1542.6 202.744V204.056C1542.39 204.04 1542.17 204.024 1541.98 204.024C1540.04 204.024 1539.21 205.096 1539.21 207.032V211ZM1547.21 211.224C1544.99 211.224 1543.29 209.704 1543.29 206.872C1543.29 204.056 1544.99 202.52 1547.21 202.52C1548.4 202.52 1549.47 202.904 1550.22 203.96H1550.38L1550.54 202.744H1551.77V211H1550.54L1550.38 209.736H1550.22C1549.49 210.824 1548.43 211.224 1547.21 211.224ZM1547.55 210.04C1549.2 210.04 1550.4 208.968 1550.4 206.872C1550.4 204.776 1549.2 203.704 1547.55 203.704C1545.9 203.704 1544.72 204.856 1544.72 206.872C1544.72 208.888 1545.9 210.04 1547.55 210.04ZM1555.43 211H1554.02V206.488C1554.02 203.768 1555.54 202.52 1558.02 202.52C1560.52 202.52 1562.02 203.656 1562.02 206.376V211H1560.63V206.376C1560.63 204.488 1559.6 203.72 1558.02 203.72C1556.44 203.72 1555.43 204.568 1555.43 206.488V211ZM1567.85 211.224C1565.63 211.224 1563.93 209.704 1563.93 206.872C1563.93 204.056 1565.63 202.52 1567.85 202.52C1569.04 202.52 1570.11 202.904 1570.86 203.96H1571.02V199.576H1572.41V211H1571.18L1571.02 209.736H1570.86C1570.13 210.808 1569.07 211.224 1567.85 211.224ZM1568.19 210.04C1569.84 210.04 1571.04 208.968 1571.04 206.872C1571.04 204.776 1569.84 203.704 1568.19 203.704C1566.54 203.704 1565.36 204.856 1565.36 206.872C1565.36 208.888 1566.54 210.04 1568.19 210.04ZM1578.52 211.224C1575.91 211.224 1574.34 209.48 1574.34 206.872C1574.34 204.008 1576.16 202.52 1578.52 202.52C1580.88 202.52 1582.52 204.12 1582.52 206.76C1582.52 206.888 1582.5 207.144 1582.48 207.256H1575.73C1575.86 209.08 1577.01 210.104 1578.52 210.104C1579.43 210.104 1580.31 209.656 1580.72 208.84H1582.12C1581.64 210.392 1580.18 211.224 1578.52 211.224ZM1575.78 206.184H1581.04C1580.9 204.6 1579.88 203.64 1578.48 203.64C1577.14 203.64 1575.96 204.536 1575.78 206.184Z" fill="#2F3342"/>
<path d="M1599.85 206.354C1600.05 206.158 1600.05 205.842 1599.85 205.646L1596.67 202.464C1596.48 202.269 1596.16 202.269 1595.96 202.464C1595.77 202.66 1595.77 202.976 1595.96 203.172L1598.79 206L1595.96 208.828C1595.77 209.024 1595.77 209.34 1595.96 209.536C1596.16 209.731 1596.48 209.731 1596.67 209.536L1599.85 206.354ZM1599.5 205.5L1590 205.5L1590 206.5L1599.5 206.5L1599.5 205.5Z" fill="#2F3342"/>
<path d="M23.4 211H15.8V199.576H17.24V209.72H23.4V211ZM28.3056 211.224C26.0816 211.224 24.3856 209.704 24.3856 206.872C24.3856 204.056 26.0816 202.52 28.3056 202.52C29.4896 202.52 30.5616 202.904 31.3136 203.96H31.4736L31.6336 202.744H32.8656V211H31.6336L31.4736 209.736H31.3136C30.5776 210.824 29.5216 211.224 28.3056 211.224ZM28.6416 210.04C30.2896 210.04 31.4896 208.968 31.4896 206.872C31.4896 204.776 30.2896 203.704 28.6416 203.704C26.9936 203.704 25.8096 204.856 25.8096 206.872C25.8096 208.888 26.9936 210.04 28.6416 210.04ZM39.6873 211.224C38.4873 211.224 37.4313 210.84 36.6793 209.784H36.5193L36.3593 211H35.1113V199.576H36.5193V204.008H36.6793C37.3993 202.92 38.4713 202.52 39.6873 202.52C41.8953 202.52 43.5913 204.04 43.5913 206.872C43.5913 209.688 41.8953 211.224 39.6873 211.224ZM39.3353 210.04C40.9993 210.04 42.1673 208.888 42.1673 206.872C42.1673 204.856 40.9993 203.704 39.3353 203.704C37.6873 203.704 36.4873 204.776 36.4873 206.872C36.4873 208.968 37.6873 210.04 39.3353 210.04ZM49.5169 211.224C47.0209 211.224 45.1969 209.816 45.1969 206.872C45.1969 203.928 47.0209 202.52 49.5169 202.52C52.0449 202.52 53.8369 203.928 53.8369 206.872C53.8369 209.816 52.0449 211.224 49.5169 211.224ZM49.5169 210.056C51.2289 210.056 52.4129 209.016 52.4129 206.872C52.4129 204.712 51.2129 203.688 49.5169 203.688C47.8209 203.688 46.6209 204.712 46.6209 206.872C46.6209 209.016 47.8209 210.056 49.5169 210.056ZM59.6066 211.224C56.9986 211.224 55.4306 209.48 55.4306 206.872C55.4306 204.008 57.2546 202.52 59.6066 202.52C61.9746 202.52 63.6066 204.12 63.6066 206.76C63.6066 206.888 63.5906 207.144 63.5746 207.256H56.8226C56.9506 209.08 58.1026 210.104 59.6066 210.104C60.5186 210.104 61.3986 209.656 61.8146 208.84H63.2066C62.7266 210.392 61.2706 211.224 59.6066 211.224ZM56.8706 206.184H62.1346C61.9906 204.6 60.9666 203.64 59.5746 203.64C58.2306 203.64 57.0466 204.536 56.8706 206.184Z" fill="#2F3342"/>
<path d="M0.146447 205.646C-0.0488155 205.842 -0.0488155 206.158 0.146447 206.354L3.32843 209.536C3.52369 209.731 3.84027 209.731 4.03553 209.536C4.2308 209.34 4.2308 209.024 4.03553 208.828L1.20711 206L4.03553 203.172C4.2308 202.976 4.2308 202.66 4.03553 202.464C3.84027 202.269 3.52369 202.269 3.32843 202.464L0.146447 205.646ZM0.5 206.5H10V205.5H0.5V206.5Z" fill="#2F3342"/>
<path d="M3.136 16H0.8V4.576H3.136V9.616H3.296L7.872 4.576H10.672L5.68 10.128L10.992 16H7.904L3.296 10.944H3.136V16ZM13.7425 6.768C12.9905 6.768 12.4465 6.224 12.4465 5.456C12.4465 4.704 12.9905 4.16 13.7425 4.16C14.5105 4.16 15.0545 4.704 15.0545 5.456C15.0545 6.224 14.5105 6.768 13.7425 6.768ZM17.4385 6.768C16.6865 6.768 16.1425 6.224 16.1425 5.456C16.1425 4.704 16.6865 4.16 17.4385 4.16C18.2065 4.16 18.7505 4.704 18.7505 5.456C18.7505 6.224 18.2065 6.768 17.4385 6.768ZM15.5345 16.224C12.9425 16.224 11.3425 15.088 11.3425 12.368V7.744H13.5665V12.368C13.5665 13.664 14.2385 14.336 15.5345 14.336C16.8305 14.336 17.5185 13.632 17.5185 12.32V7.744H19.7265V12.32C19.7265 15.04 18.1265 16.224 15.5345 16.224ZM25.3109 16.224C22.3989 16.224 21.4869 14.992 21.4869 13.808C21.4869 13.712 21.5029 13.6 21.5189 13.52H23.7109V13.6C23.7109 14.16 24.3509 14.576 25.3109 14.576C26.2069 14.576 26.9109 14.304 26.9109 13.648C26.9109 12.128 21.5509 13.6 21.5509 10.176C21.5509 8.56 23.0229 7.52 25.2149 7.52C27.7909 7.52 28.9589 8.56 28.9589 10C28.9589 10.08 28.9589 10.144 28.9429 10.224H26.7509C26.7509 10.208 26.7669 10.176 26.7669 10.112C26.7669 9.632 26.3349 9.168 25.2149 9.168C24.3029 9.168 23.7429 9.424 23.7429 10.08C23.7429 11.632 29.1029 10.112 29.1029 13.536C29.1029 15.152 27.7109 16.224 25.3109 16.224ZM34.2608 16H32.0528V9.632H30.2288V7.744H32.0528V5.536H34.2608V7.744H36.3728V9.632H34.2608V16ZM41.6132 16.224C38.8932 16.224 37.1812 14.672 37.1812 11.872C37.1812 8.96 39.0212 7.52 41.6132 7.52C44.1092 7.52 45.7252 9.072 45.7252 11.648C45.7252 11.904 45.7092 12.192 45.6772 12.464H39.3892C39.5332 13.84 40.4132 14.576 41.5972 14.576C42.3172 14.576 42.9572 14.272 43.2932 13.728H45.4532C44.9732 15.232 43.5812 16.224 41.6132 16.224ZM39.4372 10.976H43.5172C43.3412 9.76 42.4772 9.168 41.5012 9.168C40.5252 9.168 39.6452 9.808 39.4372 10.976ZM49.7209 16H47.4969V11.408C47.4969 8.688 49.0969 7.52 51.6889 7.52C54.2969 7.52 55.8809 8.656 55.8809 11.376V16H53.6729V11.376C53.6729 10.08 52.9849 9.408 51.6889 9.408C50.3929 9.408 49.7209 10.096 49.7209 11.408V16ZM61.2093 12.8H57.6413V10.928H61.2093V12.8ZM4.256 35.224C2.256 35.224 0.48 33.784 0.48 30.872C0.48 27.944 2.256 26.52 4.256 26.52C5.52 26.52 6.352 26.968 6.976 27.832H7.136L7.296 26.744H9.344V35H7.296L7.136 33.896H6.976C6.352 34.776 5.536 35.224 4.256 35.224ZM4.96 33.4C6.272 33.4 7.184 32.44 7.184 30.872C7.184 29.304 6.272 28.344 4.96 28.344C3.68 28.344 2.752 29.192 2.752 30.872C2.752 32.552 3.68 33.4 4.96 33.4ZM16.5246 35.224C15.2446 35.224 14.4286 34.776 13.8046 33.912H13.6446L13.4846 35H11.4206V23.576H13.6446V27.848H13.8046C14.4126 26.968 15.2446 26.52 16.5246 26.52C18.5086 26.52 20.2846 27.96 20.2846 30.872C20.2846 33.8 18.5086 35.224 16.5246 35.224ZM15.8046 33.4C17.1006 33.4 18.0126 32.552 18.0126 30.872C18.0126 29.192 17.1006 28.344 15.8046 28.344C14.4926 28.344 13.5806 29.304 13.5806 30.872C13.5806 32.44 14.4926 33.4 15.8046 33.4ZM25.5452 35.224C22.6332 35.224 21.7212 33.992 21.7212 32.808C21.7212 32.712 21.7372 32.6 21.7532 32.52H23.9452V32.6C23.9452 33.16 24.5852 33.576 25.5452 33.576C26.4412 33.576 27.1452 33.304 27.1452 32.648C27.1452 31.128 21.7852 32.6 21.7852 29.176C21.7852 27.56 23.2572 26.52 25.4492 26.52C28.0252 26.52 29.1932 27.56 29.1932 29C29.1932 29.08 29.1932 29.144 29.1772 29.224H26.9852C26.9852 29.208 27.0012 29.176 27.0012 29.112C27.0012 28.632 26.5692 28.168 25.4492 28.168C24.5372 28.168 23.9772 28.424 23.9772 29.08C23.9772 30.632 29.3372 29.112 29.3372 32.536C29.3372 34.152 27.9452 35.224 25.5452 35.224ZM35.0864 35.224C32.5264 35.224 30.6544 33.816 30.6544 30.872C30.6544 27.928 32.5264 26.52 35.0864 26.52C37.0384 26.52 38.8784 27.576 39.0704 29.784H36.9424C36.7184 28.696 35.8864 28.28 35.0704 28.28C33.8064 28.28 32.9264 29.144 32.9264 30.872C32.9264 32.6 33.8064 33.464 35.0704 33.464C35.8864 33.464 36.7184 33.032 36.9424 31.96H39.0704C38.8784 34.152 37.0384 35.224 35.0864 35.224ZM43.0221 35H40.7981V23.576H43.0221V27.848H43.1821C43.8381 26.904 44.7181 26.52 45.9181 26.52C47.4861 26.52 49.1821 27.432 49.1821 30.024V35H46.9741V30.376C46.9741 29.064 46.3821 28.408 45.1661 28.408C43.9181 28.408 43.0221 29.208 43.0221 30.632V35ZM53.4865 35H51.2625V30.408C51.2625 27.688 52.8625 26.52 55.4545 26.52C58.0625 26.52 59.6465 27.656 59.6465 30.376V35H57.4385V30.376C57.4385 29.08 56.7505 28.408 55.4545 28.408C54.1585 28.408 53.4865 29.096 53.4865 30.408V35ZM62.8309 25.752C62.0789 25.752 61.5349 25.208 61.5349 24.456C61.5349 23.704 62.0789 23.16 62.8309 23.16C63.5829 23.16 64.1269 23.704 64.1269 24.456C64.1269 25.208 63.5829 25.752 62.8309 25.752ZM63.9509 35H61.7269V26.744H63.9509V35ZM69.587 35H67.379V28.632H65.555V26.744H67.379V24.536H69.587V26.744H71.699V28.632H69.587V35ZM76.8482 35H74.6402V28.632H72.8162V26.744H74.6402V24.536H76.8482V26.744H78.9602V28.632H76.8482V35Z" fill="#2F3342"/>
<path d="M7.808 61H0.352V59.752L4.976 55.432C5.872 54.568 6.352 53.672 6.352 52.824C6.352 51.432 5.472 50.568 4.08 50.568C2.784 50.568 1.728 51.336 1.728 53.16C1.728 53.24 1.744 53.352 1.744 53.448H0.336C0.32 53.304 0.32 53.144 0.32 52.984C0.32 51.144 1.36 49.352 4.08 49.352C6.352 49.352 7.792 50.728 7.792 52.824C7.792 54.232 6.736 55.56 5.76 56.424L2.304 59.592V59.752H7.808V61ZM16.6355 61H9.1795V59.752L13.8035 55.432C14.6995 54.568 15.1795 53.672 15.1795 52.824C15.1795 51.432 14.2995 50.568 12.9075 50.568C11.6115 50.568 10.5555 51.336 10.5555 53.16C10.5555 53.24 10.5715 53.352 10.5715 53.448H9.1635C9.1475 53.304 9.1475 53.144 9.1475 52.984C9.1475 51.144 10.1875 49.352 12.9075 49.352C15.1795 49.352 16.6195 50.728 16.6195 52.824C16.6195 54.232 15.5635 55.56 14.5875 56.424L11.1315 59.592V59.752H16.6355V61ZM19.191 61.112C18.583 61.112 18.135 60.664 18.135 60.056C18.135 59.48 18.583 59.032 19.191 59.032C19.767 59.032 20.215 59.48 20.215 60.056C20.215 60.664 19.767 61.112 19.191 61.112ZM25.8059 61.224C23.6619 61.224 21.7099 59.8 21.7099 55.288C21.7099 50.776 23.6619 49.352 25.8059 49.352C27.9339 49.352 29.9019 50.776 29.9019 55.288C29.9019 59.8 27.9339 61.224 25.8059 61.224ZM25.8059 59.992C27.1819 59.992 28.4459 58.888 28.4459 55.288C28.4459 51.688 27.1819 50.568 25.8059 50.568C24.4299 50.568 23.1499 51.688 23.1499 55.288C23.1499 58.888 24.4299 59.992 25.8059 59.992ZM35.3677 61.224C33.2237 61.224 31.2717 59.8 31.2717 55.288C31.2717 50.776 33.2237 49.352 35.3677 49.352C37.4957 49.352 39.4637 50.776 39.4637 55.288C39.4637 59.8 37.4957 61.224 35.3677 61.224ZM35.3677 59.992C36.7437 59.992 38.0078 58.888 38.0078 55.288C38.0078 51.688 36.7437 50.568 35.3677 50.568C33.9917 50.568 32.7117 51.688 32.7117 55.288C32.7117 58.888 33.9917 59.992 35.3677 59.992ZM44.9296 61.224C42.7856 61.224 40.8336 59.8 40.8336 55.288C40.8336 50.776 42.7856 49.352 44.9296 49.352C47.0576 49.352 49.0256 50.776 49.0256 55.288C49.0256 59.8 47.0576 61.224 44.9296 61.224ZM44.9296 59.992C46.3056 59.992 47.5696 58.888 47.5696 55.288C47.5696 51.688 46.3056 50.568 44.9296 50.568C43.5536 50.568 42.2736 51.688 42.2736 55.288C42.2736 58.888 43.5536 59.992 44.9296 59.992ZM52.2355 61H50.8275V56.488C50.8275 53.768 52.1395 52.52 54.2515 52.52C55.6275 52.52 56.5875 53 57.1155 54.104H57.2755C57.7875 53.032 58.7475 52.52 60.0915 52.52C62.2195 52.52 63.5155 53.656 63.5155 56.376V61H62.1075V56.376C62.1075 54.488 61.2915 53.72 59.9955 53.72C58.6835 53.72 57.8675 54.568 57.8675 56.488V61H56.4755V56.376C56.4755 54.488 55.6595 53.72 54.3475 53.72C53.0515 53.72 52.2355 54.568 52.2355 56.488V61Z" fill="#2F3342"/>
<defs>
<filter id="filter0_d_3_28" x="896.334" y="145" width="18" height="15" filterUnits="userSpaceOnUse" color-interpolation-filters="sRGB">
<feFlood flood-opacity="0" result="BackgroundImageFix"/>
<feColorMatrix in="SourceAlpha" type="matrix" values="0 0 0 0 0 0 0 0 0 0 0 0 0 0 0 0 0 0 127 0" result="hardAlpha"/>
<feOffset dy="2"/>
<feGaussianBlur stdDeviation="2.5"/>
<feComposite in2="hardAlpha" operator="out"/>
<feColorMatrix type="matrix" values="0 0 0 0 0 0 0 0 0 0 0 0 0 0 0 0 0 0 0.14 0"/>
<feBlend mode="normal" in2="BackgroundImageFix" result="effect1_dropShadow_3_28"/>
<feBlend mode="normal" in="SourceGraphic" in2="effect1_dropShadow_3_28" result="shape"/>
</filter>
<filter id="filter1_d_3_28" x="163" y="145" width="47.3364" height="15" filterUnits="userSpaceOnUse" color-interpolation-filters="sRGB">
<feFlood flood-opacity="0" result="BackgroundImageFix"/>
<feColorMatrix in="SourceAlpha" type="matrix" values="0 0 0 0 0 0 0 0 0 0 0 0 0 0 0 0 0 0 127 0" result="hardAlpha"/>
<feOffset dy="2"/>
<feGaussianBlur stdDeviation="2.5"/>
<feComposite in2="hardAlpha" operator="out"/>
<feColorMatrix type="matrix" values="0 0 0 0 0 0 0 0 0 0 0 0 0 0 0 0 0 0 0.14 0"/>
<feBlend mode="normal" in2="BackgroundImageFix" result="effect1_dropShadow_3_28"/>
<feBlend mode="normal" in="SourceGraphic" in2="effect1_dropShadow_3_28" result="shape"/>
</filter>
<filter id="filter2_d_3_28" x="1254.34" y="145" width="240" height="15" filterUnits="userSpaceOnUse" color-interpolation-filters="sRGB">
<feFlood flood-opacity="0" result="BackgroundImageFix"/>
<feColorMatrix in="SourceAlpha" type="matrix" values="0 0 0 0 0 0 0 0 0 0 0 0 0 0 0 0 0 0 127 0" result="hardAlpha"/>
<feOffset dy="2"/>
<feGaussianBlur stdDeviation="2.5"/>
<feComposite in2="hardAlpha" operator="out"/>
<feColorMatrix type="matrix" values="0 0 0 0 0 0 0 0 0 0 0 0 0 0 0 0 0 0 0.14 0"/>
<feBlend mode="normal" in2="BackgroundImageFix" result="effect1_dropShadow_3_28"/>
<feBlend mode="normal" in="SourceGraphic" in2="effect1_dropShadow_3_28" result="shape"/>
</filter>
<filter id="filter3_d_3_28" x="1490.34" y="145" width="115" height="15" filterUnits="userSpaceOnUse" color-interpolation-filters="sRGB">
<feFlood flood-opacity="0" result="BackgroundImageFix"/>
<feColorMatrix in="SourceAlpha" type="matrix" values="0 0 0 0 0 0 0 0 0 0 0 0 0 0 0 0 0 0 127 0" result="hardAlpha"/>
<feOffset dy="2"/>
<feGaussianBlur stdDeviation="2.5"/>
<feComposite in2="hardAlpha" operator="out"/>
<feColorMatrix type="matrix" values="0 0 0 0 0 0 0 0 0 0 0 0 0 0 0 0 0 0 0.14 0"/>
<feBlend mode="normal" in2="BackgroundImageFix" result="effect1_dropShadow_3_28"/>
<feBlend mode="normal" in="SourceGraphic" in2="effect1_dropShadow_3_28" result="shape"/>
</filter>
<filter id="filter4_d_3_28" x="735.335" y="145" width="26.0013" height="15" filterUnits="userSpaceOnUse" color-interpolation-filters="sRGB">
<feFlood flood-opacity="0" result="BackgroundImageFix"/>
<feColorMatrix in="SourceAlpha" type="matrix" values="0 0 0 0 0 0 0 0 0 0 0 0 0 0 0 0 0 0 127 0" result="hardAlpha"/>
<feOffset dy="2"/>
<feGaussianBlur stdDeviation="2.5"/>
<feComposite in2="hardAlpha" operator="out"/>
<feColorMatrix type="matrix" values="0 0 0 0 0 0 0 0 0 0 0 0 0 0 0 0 0 0 0.14 0"/>
<feBlend mode="normal" in2="BackgroundImageFix" result="effect1_dropShadow_3_28"/>
<feBlend mode="normal" in="SourceGraphic" in2="effect1_dropShadow_3_28" result="shape"/>
</filter>
<filter id="filter5_d_3_28" x="1084" y="145" width="31.3351" height="15" filterUnits="userSpaceOnUse" color-interpolation-filters="sRGB">
<feFlood flood-opacity="0" result="BackgroundImageFix"/>
<feColorMatrix in="SourceAlpha" type="matrix" values="0 0 0 0 0 0 0 0 0 0 0 0 0 0 0 0 0 0 127 0" result="hardAlpha"/>
<feOffset dy="2"/>
<feGaussianBlur stdDeviation="2.5"/>
<feComposite in2="hardAlpha" operator="out"/>
<feColorMatrix type="matrix" values="0 0 0 0 0 0 0 0 0 0 0 0 0 0 0 0 0 0 0.14 0"/>
<feBlend mode="normal" in2="BackgroundImageFix" result="effect1_dropShadow_3_28"/>
<feBlend mode="normal" in="SourceGraphic" in2="effect1_dropShadow_3_28" result="shape"/>
</filter>
<filter id="filter6_d_3_28" x="849.003" y="145" width="18" height="15" filterUnits="userSpaceOnUse" color-interpolation-filters="sRGB">
<feFlood flood-opacity="0" result="BackgroundImageFix"/>
<feColorMatrix in="SourceAlpha" type="matrix" values="0 0 0 0 0 0 0 0 0 0 0 0 0 0 0 0 0 0 127 0" result="hardAlpha"/>
<feOffset dy="2"/>
<feGaussianBlur stdDeviation="2.5"/>
<feComposite in2="hardAlpha" operator="out"/>
<feColorMatrix type="matrix" values="0 0 0 0 0 0 0 0 0 0 0 0 0 0 0 0 0 0 0.14 0"/>
<feBlend mode="normal" in2="BackgroundImageFix" result="effect1_dropShadow_3_28"/>
<feBlend mode="normal" in="SourceGraphic" in2="effect1_dropShadow_3_28" result="shape"/>
</filter>
</defs>
</svg>
